# xmcd
#
# Track frame offsets: 
#        150
#        24594
#        43206
#        67942
#        85540
#        102100
#        136680
#        155178
#        167814
#        200872
#        219324
#        240109
#        260854
#        278974
#        296402
#
# Disc length: 4245 seconds
#
# Revision: 1
# Processed by: cddbd v1.5.2PL0 Copyright (c) Steve Scherf et al.
# Submitted via: ExactAudioCopy v0.99pb5
#
DISCID=d610930f
DTITLE=Various Artist - Bocce Boogie
DYEAR=2008
DGENRE=Blues
TTITLE0=Every Day I Have The Blues - Sugar Ray
TTITLE1=Walter's Boogie - Big Walter Horton
TTITLE2=Trouble In Mind - Big Walter Horton
TTITLE3=My Babe - Big Walter Horton
TTITLE4=Cold Chills - Johnny Nicholas
TTITLE5=That's Why I'm Cryin' - Johnny Nicholas
TTITLE6=Bocce Boogie - Johnny Nicholas
TTITLE7=La Cucaracha - Big Walter Horton
TTITLE8=Sweet Black Angel - Big Walter Horton
TTITLE9=Baby Please Don't Go - Big Walter Horton
TTITLE10=Hard Hearted Woman - Big Walter Horton
TTITLE11=Little Bitty Girl - Big Walter Horton
TTITLE12=Don`t Get Around - Big Walter Horton
TTITLE13=Tell Me Why - Johnny Nicholas
TTITLE14=Breakin' With The Earl - Ronnie 'Youngblood' Earl Horvath
EXTD=YEAR: 2008
EXTT0=
EXTT1=
EXTT2=
EXTT3=
EXTT4=
EXTT5=
EXTT6=
EXTT7=
EXTT8=
EXTT9=
EXTT10=
EXTT11=
EXTT12=
EXTT13=
EXTT14=
PLAYORDER=
